<svg width="34" height="34" viewBox="0 0 34 34" fill="none" xmlns="http://www.w3.org/2000/svg">
<g id="Frame 3">
<g id="Group 1164">
<path id="Vector" d="M27.153 12.669C27.0115 12.669 26.8758 12.6128 26.7758 12.5128C26.6758 12.4127 26.6196 12.2771 26.6196 12.1357C26.6196 11.9942 26.6758 11.8586 26.7758 11.7586C26.8758 11.6586 27.0115 11.6024 27.153 11.6024C28.096 11.6024 29.0178 11.3226 29.8019 10.7987C30.5859 10.2748 31.197 9.53041 31.5579 8.65918C31.9188 7.78796 32.0132 6.82943 31.8292 5.90455C31.6453 4.97966 31.1912 4.12973 30.5244 3.46292C29.8576 2.79612 29.008 2.34223 28.0831 2.15826C27.1582 1.97429 26.1995 2.06873 25.3283 2.42961C24.4571 2.79048 23.7125 3.40175 23.1886 4.18583C22.6647 4.96991 22.385 5.89173 22.385 6.83474C22.385 6.97618 22.3288 7.1118 22.2288 7.21181C22.1288 7.31183 21.9931 7.36806 21.8517 7.36806C21.7102 7.36806 21.5746 7.31183 21.4745 7.21181C21.3745 7.1118 21.3184 6.97618 21.3184 6.83474C21.3184 5.68077 21.6606 4.55262 22.3017 3.59313C22.9428 2.63364 23.854 1.88581 24.9201 1.44421C25.9862 1.0026 27.1594 0.886793 28.2912 1.11192C29.423 1.33705 30.4626 1.89279 31.2786 2.70877C32.0946 3.52475 32.6503 4.56442 32.8754 5.69622C33.1005 6.82801 32.985 8.00138 32.5434 9.06751C32.1018 10.1336 31.3539 11.0446 30.3944 11.6857C29.4349 12.3268 28.3069 12.669 27.153 12.669Z" fill="#783AFC" stroke="#783AFC"/>
<path id="Vector_2" d="M16.5514 33.0001C15.8481 33 15.1734 32.7219 14.674 32.2267L1.76223 19.3201C1.27363 18.8217 1 18.1515 1 17.4535C1 16.7555 1.27363 16.0853 1.76223 15.5869L4.0769 13.4109C4.29956 13.1696 4.57761 12.9867 4.88704 12.877C5.19648 12.7674 5.52797 12.7345 5.85284 12.7817C6.17533 12.8551 6.47522 13.0057 6.72692 13.2202C6.97861 13.4348 7.1746 13.7072 7.29813 14.014C7.29813 14.046 8.70079 17.0379 11.2447 17.0379C13.7887 17.0379 15.9487 14.7763 15.9487 12.0937C15.9487 9.5444 12.9567 8.22734 12.9247 8.21668C12.6084 8.1075 12.3266 7.91604 12.1081 7.66252C11.8897 7.409 11.7423 7.10249 11.6811 6.77347C11.6198 6.44446 11.6468 6.10479 11.7594 5.78964C11.872 5.47448 12.0662 5.19494 12.3221 4.97923L14.6527 2.35532C14.8986 2.10191 15.1929 1.90057 15.5181 1.76314C15.8433 1.62572 16.1929 1.55501 16.546 1.55534C16.895 1.55347 17.2409 1.62161 17.5632 1.75533C17.8856 1.88905 18.178 2.08562 18.4233 2.33397L22.2419 6.49379C22.3381 6.59775 22.389 6.73559 22.3835 6.87712C22.378 7.01864 22.3165 7.15228 22.2126 7.24847C22.1086 7.34465 21.9706 7.39563 21.8291 7.39013C21.6876 7.38463 21.5541 7.32326 21.4579 7.2193L17.6553 3.06989C17.3593 2.77982 16.9605 2.61883 16.546 2.62198C16.1263 2.62375 15.724 2.79045 15.426 3.08604L13.0954 5.70995C12.9702 5.81442 12.8719 5.94762 12.8088 6.09796C12.7457 6.24831 12.7196 6.41147 12.7327 6.574C12.7744 6.72679 12.8524 6.86728 12.9601 6.98337C13.0679 7.09946 13.2021 7.1877 13.3514 7.24065C13.4954 7.29932 17.0153 8.84042 17.0153 12.0937C17.0454 13.6555 16.4547 15.1653 15.3729 16.2921C14.291 17.4189 12.8064 18.0709 11.2447 18.1045C8.00746 18.1045 6.3915 14.6003 6.32217 14.4509C6.28331 14.295 6.20042 14.1537 6.08337 14.0437C5.96633 13.9336 5.82009 13.8594 5.66209 13.8301C5.5041 13.8009 5.341 13.8177 5.19231 13.8786C5.04362 13.9395 4.91558 14.0422 4.8235 14.1739L2.50355 16.3499C2.212 16.6487 2.04881 17.0495 2.04881 17.467C2.04881 17.8845 2.212 18.2854 2.50355 18.5842L15.41 31.4908C15.7093 31.7855 16.1126 31.9506 16.5327 31.9506C16.9528 31.9506 17.356 31.7855 17.6553 31.4908L30.9137 18.579C31.2069 18.2799 31.3711 17.878 31.3711 17.4592C31.3711 17.0404 31.2069 16.638 30.9137 16.3389L26.7805 12.5525C26.6768 12.4569 26.6152 12.3242 26.6092 12.1833C26.6032 12.0423 26.6533 11.9046 26.7485 11.8005C26.8441 11.6968 26.9769 11.6351 27.1178 11.6291C27.2588 11.6231 27.3964 11.6735 27.5004 11.7687L31.6497 15.5712C32.1496 16.0713 32.4305 16.7495 32.4305 17.4566C32.4305 18.1637 32.1496 18.8414 31.6497 19.3415L18.386 32.2532C17.8951 32.7318 17.2368 32.9999 16.5514 33.0001Z" fill="#783AFC" stroke="#783AFC"/>
</g>
</g>
</svg>
