<svg width="25" height="24" viewBox="0 0 25 24" fill="none" xmlns="http://www.w3.org/2000/svg">
<g id="Github" clip-path="url(#clip0_3_496)">
<path id="Vector" fill-rule="evenodd" clip-rule="evenodd" d="M12.5981 0C5.95831 0 0.589478 5.49985 0.589478 12.3047C0.589478 17.7445 4.02858 22.3469 8.80005 23.9768C9.39741 24.0993 9.61619 23.7118 9.61619 23.3868C9.61619 23.1018 9.59653 22.1244 9.59653 21.1044C6.25576 21.8369 5.56007 19.6369 5.56007 19.6369C5.02417 18.212 4.2277 17.8445 4.2277 17.8445C3.13377 17.092 4.30636 17.092 4.30636 17.092C5.51828 17.1745 6.15497 18.3545 6.15497 18.3545C7.22922 20.2294 8.95738 19.6994 9.65552 19.372C9.75385 18.577 10.0734 18.027 10.4102 17.722C7.74546 17.437 4.94305 16.377 4.94305 11.6522C4.94305 10.3072 5.41995 9.20724 6.17463 8.35226C6.05418 8.04727 5.63873 6.78481 6.29509 5.09236C6.29509 5.09236 7.30789 4.76737 9.59653 6.35482C10.5749 6.08483 11.5853 5.94733 12.5981 5.94733C13.6109 5.94733 14.6458 6.08983 15.5996 6.35482C17.8858 4.76487 18.901 5.09236 18.901 5.09236C19.5574 6.78231 19.1395 8.04727 19.0215 8.35226C19.7958 9.20724 20.2531 10.3072 20.2531 11.6522C20.2531 16.3795 17.4506 17.417 14.7662 17.722C15.2038 18.1095 15.5824 18.842 15.5824 20.0044C15.5824 21.6544 15.5627 22.9794 15.5627 23.3868C15.5627 23.7118 15.7815 24.0993 16.3789 23.9768C21.1503 22.3469 24.5894 17.7445 24.5894 12.3047C24.6091 5.49985 19.2206 0 12.6005 0L12.5981 0Z" fill="#783AFC"/>
</g>
<defs>
<clipPath id="clip0_3_496">
<rect width="24" height="24" fill="white" transform="translate(0.589478)"/>
</clipPath>
</defs>
</svg>
