<svg width="34" height="34" viewBox="0 0 34 34" fill="none" xmlns="http://www.w3.org/2000/svg">
<g id="Frame 3">
<g id="Group 1352">
<path id="Vector" d="M29.352 33H4.64798C3.68183 32.9986 2.75562 32.6144 2.07194 31.9318C1.38827 31.2491 1.00282 30.3234 1 29.3573V4.64792C1.00141 3.68084 1.38622 2.75362 2.07005 2.06979C2.75388 1.38596 3.68091 1.00141 4.64798 1H29.352C30.3191 1.00141 31.2461 1.38596 31.9299 2.06979C32.6138 2.75362 32.9986 3.68084 33 4.64792V29.3573C32.9972 30.3234 32.6117 31.2491 31.9281 31.9318C31.2444 32.6144 30.3182 32.9986 29.352 33ZM4.64798 2.06667C3.96337 2.06667 3.30682 2.33882 2.82272 2.82292C2.33863 3.30701 2.06667 3.9633 2.06667 4.64792V29.3573C2.06808 30.041 2.34067 30.6962 2.82461 31.1792C3.30855 31.6621 3.96429 31.9333 4.64798 31.9333H29.352C30.0357 31.9333 30.6915 31.6621 31.1754 31.1792C31.6593 30.6962 31.9319 30.041 31.9333 29.3573V4.64792C31.9333 3.9633 31.6614 3.30701 31.1773 2.82292C30.6932 2.33882 30.0366 2.06667 29.352 2.06667H4.64798Z" fill="#783AFC" stroke="#783AFC"/>
<path id="Vector_2" d="M7.93337 11.1333C7.30047 11.1333 6.68181 10.9459 6.15557 10.5942C5.62933 10.2426 5.21912 9.74251 4.97692 9.15779C4.73472 8.57307 4.67135 7.92957 4.79483 7.30883C4.9183 6.6881 5.22308 6.11834 5.67061 5.67082C6.11814 5.22329 6.68835 4.91825 7.30909 4.79478C7.92982 4.6713 8.57325 4.73487 9.15798 4.97707C9.7427 5.21927 10.2424 5.62947 10.594 6.15571C10.9457 6.68195 11.1334 7.30041 11.1334 7.93331C11.1334 8.782 10.7962 9.59569 10.1961 10.1958C9.59601 10.7959 8.78206 11.1333 7.93337 11.1333ZM7.93337 5.79998C7.51144 5.79998 7.09897 5.92494 6.74815 6.15936C6.39732 6.39377 6.12387 6.72735 5.9624 7.11717C5.80094 7.50698 5.75874 7.93563 5.84105 8.34946C5.92337 8.76328 6.12655 9.14329 6.42491 9.44164C6.72326 9.73999 7.10333 9.94318 7.51716 10.0255C7.93098 10.1078 8.35996 10.0656 8.74978 9.90414C9.13959 9.74267 9.47278 9.46955 9.7072 9.11873C9.94161 8.7679 10.0667 8.35524 10.0667 7.93331C10.0667 7.36752 9.84191 6.82506 9.44183 6.42498C9.04176 6.0249 8.49916 5.79998 7.93337 5.79998Z" fill="#783AFC" stroke="#783AFC"/>
<path id="Vector_3" d="M26.0667 11.1333C25.4338 11.1333 24.8151 10.9459 24.2889 10.5942C23.7627 10.2426 23.3525 9.74251 23.1103 9.15779C22.8681 8.57307 22.8047 7.92957 22.9282 7.30883C23.0516 6.6881 23.3564 6.11834 23.8039 5.67082C24.2515 5.22329 24.8217 4.91825 25.4424 4.79478C26.0632 4.6713 26.7066 4.73487 27.2913 4.97707C27.876 5.21927 28.3758 5.62947 28.7274 6.15571C29.079 6.68195 29.2667 7.30041 29.2667 7.93331C29.2667 8.782 28.9296 9.59569 28.3295 10.1958C27.7293 10.7959 26.9154 11.1333 26.0667 11.1333ZM26.0667 5.79998C25.6448 5.79998 25.2323 5.92494 24.8815 6.15936C24.5307 6.39377 24.2572 6.72735 24.0957 7.11717C23.9343 7.50698 23.8921 7.93563 23.9744 8.34946C24.0567 8.76328 24.2599 9.14329 24.5582 9.44164C24.8566 9.73999 25.2367 9.94318 25.6505 10.0255C26.0643 10.1078 26.4933 10.0656 26.8831 9.90414C27.2729 9.74267 27.6061 9.46955 27.8405 9.11873C28.0749 8.7679 28.2 8.35524 28.2 7.93331C28.2 7.36752 27.9752 6.82506 27.5752 6.42498C27.1751 6.0249 26.6325 5.79998 26.0667 5.79998Z" fill="#783AFC" stroke="#783AFC"/>
<path id="Vector_4" d="M7.93337 29.2667C7.30047 29.2667 6.68181 29.0792 6.15557 28.7276C5.62933 28.376 5.21912 27.8759 4.97692 27.2911C4.73472 26.7064 4.67135 26.0629 4.79483 25.4422C4.9183 24.8214 5.22308 24.2517 5.67061 23.8042C6.11814 23.3566 6.68835 23.0516 7.30909 22.9281C7.92982 22.8046 8.57325 22.8682 9.15798 23.1104C9.7427 23.3526 10.2424 23.7628 10.594 24.289C10.9457 24.8153 11.1334 25.4338 11.1334 26.0667C11.1334 26.9154 10.7962 27.729 10.1961 28.3292C9.59601 28.9293 8.78206 29.2667 7.93337 29.2667ZM7.93337 23.9333C7.51144 23.9333 7.09897 24.0583 6.74815 24.2927C6.39732 24.5271 6.12387 24.8607 5.9624 25.2505C5.80094 25.6403 5.75874 26.069 5.84105 26.4828C5.92337 26.8966 6.12655 27.2766 6.42491 27.575C6.72326 27.8733 7.10333 28.0765 7.51716 28.1589C7.93098 28.2412 8.35996 28.199 8.74978 28.0375C9.13959 27.876 9.47278 27.6029 9.7072 27.2521C9.94161 26.9013 10.0667 26.4886 10.0667 26.0667C10.0667 25.5009 9.84191 24.9584 9.44183 24.5583C9.04176 24.1582 8.49916 23.9333 7.93337 23.9333Z" fill="#783AFC" stroke="#783AFC"/>
<path id="Vector_5" d="M26.0667 29.2667C25.4338 29.2667 24.8151 29.0792 24.2889 28.7276C23.7627 28.376 23.3525 27.8759 23.1103 27.2911C22.8681 26.7064 22.8047 26.0629 22.9282 25.4422C23.0516 24.8214 23.3564 24.2517 23.8039 23.8042C24.2515 23.3566 24.8217 23.0516 25.4424 22.9281C26.0632 22.8046 26.7066 22.8682 27.2913 23.1104C27.876 23.3526 28.3758 23.7628 28.7274 24.289C29.079 24.8153 29.2667 25.4338 29.2667 26.0667C29.2667 26.9154 28.9296 27.729 28.3295 28.3292C27.7293 28.9293 26.9154 29.2667 26.0667 29.2667ZM26.0667 23.9333C25.6448 23.9333 25.2323 24.0583 24.8815 24.2927C24.5307 24.5271 24.2572 24.8607 24.0957 25.2505C23.9343 25.6403 23.8921 26.069 23.9744 26.4828C24.0567 26.8966 24.2599 27.2766 24.5582 27.575C24.8566 27.8733 25.2367 28.0765 25.6505 28.1589C26.0643 28.2412 26.4933 28.199 26.8831 28.0375C27.2729 27.876 27.6061 27.6029 27.8405 27.2521C28.0749 26.9013 28.2 26.4886 28.2 26.0667C28.2 25.5009 27.9752 24.9584 27.5752 24.5583C27.1751 24.1582 26.6325 23.9333 26.0667 23.9333Z" fill="#783AFC" stroke="#783AFC"/>
<path id="Vector_6" d="M17 20.2C16.3671 20.2 15.7485 20.0125 15.2222 19.6609C14.696 19.3093 14.2858 18.8092 14.0436 18.2245C13.8014 17.6397 13.738 16.9962 13.8615 16.3755C13.9849 15.7548 14.2897 15.185 14.7373 14.7375C15.1848 14.29 15.755 13.9849 16.3757 13.8614C16.9965 13.738 17.6399 13.8015 18.2246 14.0437C18.8094 14.2859 19.3091 14.6961 19.6607 15.2224C20.0123 15.7486 20.2 16.3671 20.2 17C20.2 17.8487 19.8629 18.6624 19.2628 19.2625C18.6627 19.8626 17.8487 20.2 17 20.2ZM17 14.8666C16.5781 14.8666 16.1656 14.9916 15.8148 15.226C15.464 15.4604 15.1905 15.794 15.0291 16.1838C14.8676 16.5736 14.8254 17.0023 14.9077 17.4161C14.99 17.8299 15.1932 18.21 15.4916 18.5083C15.7899 18.8067 16.17 19.0098 16.5838 19.0922C16.9976 19.1745 17.4266 19.1323 17.8164 18.9708C18.2062 18.8093 18.5394 18.5362 18.7738 18.1854C19.0083 17.8346 19.1334 17.4219 19.1334 17C19.1334 16.4342 18.9086 15.8917 18.5085 15.4916C18.1084 15.0916 17.5658 14.8666 17 14.8666Z" fill="#783AFC" stroke="#783AFC"/>
</g>
</g>
</svg>
