<svg width="25" height="24" viewBox="0 0 25 24" fill="none" xmlns="http://www.w3.org/2000/svg">
<circle cx="12" cy="12" r="12" fill="#783AFC"/>
<g clip-path="url(#clip0_20_186)">
<path d="M9.5064 9.53796H7.53918V16.5H9.5064V9.53796Z" fill="white"/>
<path d="M8.52279 8.72785C9.15655 8.72785 9.67033 8.22913 9.67033 7.61392C9.67033 6.99872 9.15655 6.5 8.52279 6.5C7.88902 6.5 7.37524 6.99872 7.37524 7.61392C7.37524 8.22913 7.88902 8.72785 8.52279 8.72785Z" fill="white"/>
<path d="M17.3752 16.5H15.408V12.9557C15.408 10.8228 12.7851 10.9873 12.7851 12.9557V16.5H10.8179V9.53796H12.7851V10.6582C13.7031 9.01898 17.3752 8.89872 17.3752 12.2278V16.5063V16.5Z" fill="white"/>
</g>
<defs>
<clipPath id="clip0_20_186">
<rect width="10" height="10" fill="white" transform="translate(7.37524 6.5)"/>
</clipPath>
</defs>
</svg>
