<svg width="34" height="34" viewBox="0 0 34 34" fill="none" xmlns="http://www.w3.org/2000/svg">
<g id="Frame 3">
<g id="Group 187">
<path id="Vector" d="M8.99268 29.8701C8.8529 29.8695 8.71897 29.814 8.61973 29.7156L4.25049 25.3464C4.20055 25.2969 4.16092 25.2379 4.13387 25.173C4.10682 25.1081 4.0929 25.0384 4.0929 24.9681C4.0929 24.8977 4.10682 24.8281 4.13387 24.7632C4.16092 24.6982 4.20055 24.6393 4.25049 24.5898L26.656 2.21099C26.7558 2.11175 26.8908 2.05603 27.0316 2.05603C27.1723 2.05603 27.3074 2.11175 27.4073 2.21099C27.4572 2.26053 27.4968 2.31944 27.5239 2.38437C27.5509 2.4493 27.5649 2.51894 27.5649 2.58928C27.5649 2.65962 27.5509 2.72927 27.5239 2.7942C27.4968 2.85913 27.4572 2.91807 27.4073 2.9676L5.38542 24.9788L8.99801 28.5966L31.0305 6.56953C31.0782 6.51375 31.137 6.46843 31.2032 6.43645C31.2693 6.40447 31.3412 6.3865 31.4146 6.38367C31.488 6.38084 31.5612 6.39321 31.6296 6.42C31.6979 6.44678 31.76 6.48742 31.812 6.53935C31.8639 6.59128 31.9045 6.65335 31.9313 6.72173C31.9581 6.7901 31.9704 6.86328 31.9676 6.93666C31.9648 7.01004 31.9468 7.08204 31.9149 7.14815C31.8829 7.21425 31.8375 7.27304 31.7818 7.3208L9.40297 29.6996C9.35088 29.7559 9.28723 29.8002 9.21643 29.8297C9.14562 29.8591 9.06931 29.8729 8.99268 29.8701Z" fill="#783AFC" stroke="#783AFC"/>
<path id="Vector_2" d="M1.53329 32.971C1.44602 32.9705 1.36017 32.9486 1.28333 32.9073C1.20649 32.8659 1.14103 32.8063 1.09263 32.7337C1.04422 32.6611 1.01436 32.5777 1.00573 32.4908C0.997096 32.404 1.0099 32.3164 1.04306 32.2356L4.13883 24.776C4.16566 24.7112 4.20503 24.6524 4.25467 24.6028C4.30431 24.5532 4.36322 24.514 4.42807 24.4872C4.49292 24.4605 4.56242 24.4468 4.63257 24.447C4.70271 24.4472 4.77209 24.4612 4.8368 24.4883C4.96638 24.5425 5.06937 24.6457 5.12325 24.7755C5.17713 24.9052 5.17758 25.0509 5.12455 25.181L2.51901 31.463L8.79575 28.8575C8.86047 28.8306 8.92987 28.8166 8.99998 28.8165C9.07009 28.8164 9.13953 28.8301 9.20434 28.8568C9.26916 28.8835 9.32809 28.9227 9.37775 28.9722C9.42741 29.0217 9.46678 29.0805 9.49372 29.1452C9.52066 29.21 9.53464 29.2794 9.53476 29.3495C9.53488 29.4196 9.52115 29.489 9.49443 29.5538C9.46772 29.6187 9.42854 29.6776 9.37905 29.7272C9.32956 29.7769 9.27076 29.8163 9.20604 29.8432L1.74643 32.939C1.67905 32.9668 1.60588 32.9778 1.53329 32.971Z" fill="#783AFC" stroke="#783AFC"/>
<path id="Vector_3" d="M31.5318 7.34194C31.4617 7.34235 31.3922 7.32888 31.3273 7.30236C31.2624 7.27585 31.2033 7.23678 31.1535 7.1874C31.1035 7.13787 31.0639 7.07896 31.0369 7.01403C31.0098 6.9491 30.9959 6.87945 30.9959 6.80911C30.9959 6.73877 31.0098 6.66913 31.0369 6.6042C31.0639 6.53927 31.1035 6.48033 31.1535 6.43079C31.4028 6.196 31.6025 5.91352 31.7406 5.6001C31.8787 5.28669 31.9525 4.94871 31.9575 4.60625C31.9626 4.26379 31.8987 3.92382 31.7699 3.60648C31.641 3.28915 31.4498 3.00092 31.2074 2.75891C30.965 2.51691 30.6765 2.32605 30.359 2.19766C30.0415 2.06927 29.7014 2.00598 29.359 2.01151C29.0165 2.01704 28.6786 2.09128 28.3654 2.22986C28.0522 2.36843 27.77 2.5685 27.5356 2.8182C27.4358 2.91744 27.3007 2.97316 27.1599 2.97316C27.0192 2.97316 26.8841 2.91744 26.7843 2.8182C26.7344 2.76867 26.6947 2.70976 26.6677 2.64483C26.6406 2.5799 26.6267 2.51025 26.6267 2.43991C26.6267 2.36957 26.6406 2.29993 26.6677 2.235C26.6947 2.17007 26.7344 2.11113 26.7843 2.06159C27.1209 1.72503 27.5204 1.45806 27.9601 1.27591C28.3999 1.09376 28.8712 1 29.3472 1C29.8232 1 30.2945 1.09376 30.7342 1.27591C31.174 1.45806 31.5736 1.72503 31.9101 2.06159C32.2467 2.39816 32.5137 2.79772 32.6958 3.23746C32.878 3.67721 32.9717 4.14852 32.9717 4.6245C32.9717 5.10047 32.878 5.57178 32.6958 6.01153C32.5137 6.45127 32.2467 6.85084 31.9101 7.1874C31.8603 7.23678 31.8013 7.27585 31.7364 7.30236C31.6715 7.32888 31.602 7.34235 31.5318 7.34194Z" fill="#783AFC" stroke="#783AFC"/>
<path id="Vector_4" d="M29.3474 9.52662C29.2773 9.52703 29.2077 9.51359 29.1428 9.48707C29.0779 9.46056 29.0189 9.42149 28.9691 9.37211L24.5999 5.00291C24.55 4.95338 24.5103 4.89444 24.4833 4.82951C24.4562 4.76458 24.4423 4.69493 24.4423 4.62459C24.4423 4.55425 24.4562 4.4846 24.4833 4.41967C24.5103 4.35474 24.55 4.29584 24.5999 4.2463C24.6998 4.14706 24.8348 4.09134 24.9755 4.09134C25.1163 4.09134 25.2513 4.14706 25.3512 4.2463L29.7257 8.61547C29.7757 8.66501 29.8153 8.72395 29.8424 8.78888C29.8694 8.85381 29.8833 8.92345 29.8833 8.99379C29.8833 9.06413 29.8694 9.13378 29.8424 9.19871C29.8153 9.26364 29.7757 9.32258 29.7257 9.37211C29.6759 9.42149 29.6169 9.46056 29.5519 9.48707C29.487 9.51359 29.4175 9.52703 29.3474 9.52662Z" fill="#783AFC" stroke="#783AFC"/>
<path id="Vector_5" d="M25.5799 32.971C25.5098 32.9714 25.4403 32.958 25.3754 32.9314C25.3105 32.9049 25.2514 32.8659 25.2016 32.8165L15.3869 22.9751C15.3372 22.9254 15.2978 22.8665 15.2709 22.8015C15.2441 22.7366 15.2302 22.6671 15.2302 22.5968C15.2302 22.5266 15.2441 22.457 15.2709 22.3921C15.2978 22.3272 15.3372 22.2682 15.3869 22.2185C15.4366 22.1688 15.4956 22.1294 15.5605 22.1025C15.6254 22.0756 15.6949 22.0618 15.7652 22.0618C15.8355 22.0618 15.905 22.0756 15.97 22.1025C16.0349 22.1294 16.0939 22.1688 16.1436 22.2185L25.6066 31.6869L31.7075 25.5807L22.2497 16.1176C22.1998 16.0681 22.1602 16.0091 22.1331 15.9442C22.1061 15.8793 22.0922 15.8096 22.0922 15.7393C22.0922 15.669 22.1061 15.5993 22.1331 15.5344C22.1602 15.4695 22.1998 15.4105 22.2497 15.361C22.3496 15.2618 22.4846 15.206 22.6254 15.206C22.7661 15.206 22.9012 15.2618 23.0011 15.361L32.8424 25.2023C32.8923 25.2519 32.932 25.3108 32.959 25.3757C32.9861 25.4407 33 25.5103 33 25.5807C33 25.651 32.9861 25.7206 32.959 25.7856C32.932 25.8505 32.8923 25.9094 32.8424 25.959L25.9849 32.8165C25.932 32.8692 25.8686 32.9102 25.7988 32.9368C25.729 32.9634 25.6545 32.975 25.5799 32.971Z" fill="#783AFC" stroke="#783AFC"/>
<path id="Vector_6" d="M11.3692 18.7606C11.2991 18.761 11.2296 18.7476 11.1647 18.721C11.0997 18.6945 11.0407 18.6554 10.9909 18.606L1.15493 8.76472C1.05569 8.66488 1 8.52983 1 8.38906C1 8.2483 1.05569 8.11324 1.15493 8.01341L8.01243 1.15591C8.11226 1.05667 8.24729 1.00098 8.38805 1.00098C8.52882 1.00098 8.66384 1.05667 8.76367 1.15591L18.5837 10.9919C18.6334 11.0416 18.6728 11.1006 18.6997 11.1655C18.7266 11.2304 18.7404 11.3 18.7404 11.3703C18.7404 11.4405 18.7266 11.5101 18.6997 11.575C18.6728 11.6399 18.6334 11.6989 18.5837 11.7485C18.5341 11.7982 18.475 11.8376 18.4101 11.8645C18.3452 11.8914 18.2757 11.9053 18.2054 11.9053C18.1352 11.9053 18.0656 11.8914 18.0007 11.8645C17.9358 11.8376 17.8768 11.7982 17.8271 11.7485L8.36939 2.2855L2.26319 8.39173L11.7262 17.8494C11.7762 17.899 11.8158 17.9579 11.8429 18.0228C11.8699 18.0878 11.8838 18.1574 11.8838 18.2278C11.8838 18.2981 11.8699 18.3677 11.8429 18.4327C11.8158 18.4976 11.7762 18.5565 11.7262 18.606C11.631 18.7007 11.5034 18.7559 11.3692 18.7606Z" fill="#783AFC" stroke="#783AFC"/>
<path id="Vector_7" d="M10.0591 7.9281C9.98896 7.92851 9.91944 7.91507 9.85452 7.88855C9.7896 7.86204 9.73058 7.82298 9.68079 7.77359C9.63085 7.72406 9.59122 7.66512 9.56417 7.60019C9.53712 7.53526 9.52319 7.46561 9.52319 7.39527C9.52319 7.32493 9.53712 7.25529 9.56417 7.19036C9.59122 7.12543 9.63085 7.06648 9.68079 7.01695L11.7801 4.92294C11.882 4.83565 12.0132 4.79005 12.1473 4.79523C12.2814 4.80041 12.4085 4.85598 12.5034 4.95087C12.5983 5.04577 12.654 5.17298 12.6592 5.30708C12.6643 5.44118 12.6187 5.57231 12.5314 5.67425L10.4374 7.77359C10.3876 7.82298 10.3286 7.86204 10.2636 7.88855C10.1987 7.91507 10.1292 7.92851 10.0591 7.9281Z" fill="#783AFC" stroke="#783AFC"/>
<path id="Vector_8" d="M11.6575 11.6579C11.5874 11.6583 11.5179 11.6449 11.453 11.6184C11.3881 11.5918 11.329 11.5528 11.2792 11.5034C11.2293 11.4539 11.1897 11.3949 11.1626 11.33C11.1356 11.2651 11.1216 11.1954 11.1216 11.1251C11.1216 11.0547 11.1356 10.9851 11.1626 10.9202C11.1897 10.8552 11.2293 10.7963 11.2792 10.7467L14.4442 7.58708C14.5461 7.49979 14.6773 7.45419 14.8114 7.45937C14.9455 7.46455 15.0727 7.52012 15.1675 7.61501C15.2624 7.70991 15.3181 7.83712 15.3233 7.97122C15.3284 8.10532 15.2828 8.23645 15.1955 8.33838L12.0358 11.5034C11.986 11.5528 11.927 11.5918 11.8621 11.6184C11.7972 11.6449 11.7277 11.6583 11.6575 11.6579Z" fill="#783AFC" stroke="#783AFC"/>
<path id="Vector_9" d="M23.9125 21.7816C23.8424 21.782 23.7729 21.7686 23.708 21.7421C23.6431 21.7156 23.584 21.6765 23.5342 21.6271C23.4843 21.5776 23.4447 21.5186 23.4176 21.4537C23.3906 21.3888 23.3766 21.3191 23.3766 21.2488C23.3766 21.1784 23.3906 21.1088 23.4176 21.0439C23.4447 20.9789 23.4843 20.92 23.5342 20.8705L25.6336 18.7765C25.7355 18.6892 25.8666 18.6436 26.0007 18.6487C26.1348 18.6539 26.262 18.7095 26.3569 18.8044C26.4518 18.8993 26.5074 19.0265 26.5126 19.1606C26.5178 19.2947 26.4722 19.4258 26.3849 19.5278L24.2908 21.6271C24.241 21.6765 24.182 21.7156 24.1171 21.7421C24.0522 21.7686 23.9827 21.782 23.9125 21.7816Z" fill="#783AFC" stroke="#783AFC"/>
<path id="Vector_10" d="M25.511 25.5114C25.4409 25.5118 25.3714 25.4984 25.3065 25.4719C25.2416 25.4453 25.1825 25.4063 25.1328 25.3569C25.0828 25.3074 25.0432 25.2484 25.0161 25.1835C24.9891 25.1186 24.9752 25.0489 24.9752 24.9786C24.9752 24.9082 24.9891 24.8386 25.0161 24.7737C25.0432 24.7087 25.0828 24.6498 25.1328 24.6003L28.2977 21.4406C28.3997 21.3533 28.5308 21.3077 28.6649 21.3129C28.799 21.3181 28.9262 21.3736 29.0211 21.4685C29.116 21.5634 29.1716 21.6906 29.1768 21.8247C29.182 21.9588 29.1363 22.09 29.049 22.1919L25.8893 25.3569C25.8395 25.4063 25.7805 25.4453 25.7156 25.4719C25.6507 25.4984 25.5812 25.5118 25.511 25.5114Z" fill="#783AFC" stroke="#783AFC"/>
</g>
</g>
</svg>
