<svg width="34" height="32" viewBox="0 0 34 32" fill="none" xmlns="http://www.w3.org/2000/svg">
<g id="Frame 3">
<g id="Group 564">
<path id="Vector" d="M16.4474 21.6582C16.3526 21.6579 16.2595 21.6333 16.177 21.5866L1.27972 13.3103C1.1948 13.2622 1.12417 13.1923 1.07503 13.108C1.02589 13.0236 1 12.9278 1 12.8302C1 12.7326 1.02589 12.6368 1.07503 12.5524C1.12417 12.4681 1.1948 12.3982 1.27972 12.3501L16.177 4.07382C16.2609 4.02539 16.356 4 16.4529 4C16.5497 4 16.6449 4.02539 16.7288 4.07382L31.6261 12.3501C31.711 12.3982 31.7816 12.4681 31.8308 12.5524C31.8799 12.6368 31.9058 12.7326 31.9058 12.8302C31.9058 12.9278 31.8799 13.0236 31.8308 13.108C31.7816 13.1923 31.711 13.2622 31.6261 13.3103L16.7288 21.5866C16.6431 21.6352 16.5459 21.6599 16.4474 21.6582ZM2.68671 12.8302L16.4474 20.4775L30.208 12.8302L16.4474 5.18285L2.68671 12.8302Z" fill="#783AFC" stroke="#783AFC"/>
<path id="Vector_2" d="M31.3447 23.3798C31.1984 23.3798 31.058 23.3216 30.9545 23.2181C30.8511 23.1146 30.793 22.9743 30.793 22.828V12.8965C30.793 12.7501 30.8511 12.6097 30.9545 12.5062C31.058 12.4028 31.1984 12.3447 31.3447 12.3447C31.4911 12.3447 31.6314 12.4028 31.7349 12.5062C31.8384 12.6097 31.8965 12.7501 31.8965 12.8965V22.828C31.8965 22.9743 31.8384 23.1146 31.7349 23.2181C31.6314 23.3216 31.4911 23.3798 31.3447 23.3798Z" fill="#783AFC" stroke="#783AFC"/>
<path id="Vector_3" d="M31.3447 25.5205C31.0173 25.5205 30.6973 25.4234 30.4251 25.2415C30.1529 25.0596 29.9408 24.8011 29.8155 24.4986C29.6902 24.1962 29.6574 23.8634 29.7213 23.5424C29.7851 23.2213 29.9428 22.9263 30.1743 22.6948C30.4058 22.4633 30.7007 22.3056 31.0218 22.2418C31.3428 22.1779 31.6757 22.2107 31.9782 22.3359C32.2806 22.4612 32.5391 22.6734 32.721 22.9456C32.9029 23.2178 33 23.5379 33 23.8652C33 24.3042 32.8256 24.7253 32.5152 25.0357C32.2047 25.3461 31.7837 25.5205 31.3447 25.5205ZM31.3447 23.3135C31.2356 23.3135 31.1289 23.3458 31.0382 23.4064C30.9475 23.4671 30.8768 23.5533 30.835 23.6542C30.7932 23.755 30.7822 23.8658 30.8035 23.9729C30.8248 24.0799 30.8774 24.1782 30.9545 24.2553C31.0317 24.3325 31.1301 24.3851 31.2371 24.4063C31.3441 24.4276 31.455 24.4167 31.5559 24.375C31.6567 24.3332 31.7428 24.2626 31.8035 24.1718C31.8641 24.0811 31.8965 23.9744 31.8965 23.8652C31.8965 23.7189 31.8384 23.5786 31.7349 23.4751C31.6314 23.3717 31.491 23.3135 31.3447 23.3135Z" fill="#783AFC" stroke="#783AFC"/>
<path id="Vector_4" d="M24.7237 27.7938C24.5774 27.7938 24.437 27.7356 24.3335 27.6321C24.23 27.5286 24.1719 27.3883 24.1719 27.242V16.7587C24.1719 16.6124 24.23 16.472 24.3335 16.3685C24.437 16.265 24.5774 16.207 24.7237 16.207C24.87 16.207 25.0104 16.265 25.1139 16.3685C25.2173 16.472 25.2754 16.6124 25.2754 16.7587V27.242C25.2754 27.3883 25.2173 27.5286 25.1139 27.6321C25.0104 27.7356 24.87 27.7938 24.7237 27.7938Z" fill="#783AFC" stroke="#783AFC"/>
<path id="Vector_5" d="M8.17114 27.7938C8.0248 27.7938 7.88444 27.7356 7.78096 27.6321C7.67749 27.5286 7.61938 27.3883 7.61938 27.242V16.7587C7.61938 16.6124 7.67749 16.472 7.78096 16.3685C7.88444 16.265 8.0248 16.207 8.17114 16.207C8.31747 16.207 8.45784 16.265 8.56131 16.3685C8.66478 16.472 8.72289 16.6124 8.72289 16.7587V27.242C8.72289 27.3883 8.66478 27.5286 8.56131 27.6321C8.45784 27.7356 8.31747 27.7938 8.17114 27.7938Z" fill="#783AFC" stroke="#783AFC"/>
<path id="Vector_6" d="M16.4473 29.9347C13.4499 29.9684 10.4957 29.217 7.87862 27.7553C7.75557 27.6779 7.668 27.5552 7.63494 27.4137C7.60188 27.2721 7.62603 27.1232 7.70209 26.9993C7.74041 26.9376 7.79049 26.8841 7.84953 26.8418C7.90857 26.7996 7.97539 26.7693 8.04613 26.7529C8.11687 26.7365 8.19017 26.7344 8.26179 26.7463C8.33341 26.7583 8.40196 26.7843 8.46351 26.8228C10.9181 28.1413 13.6611 28.8313 16.4473 28.8313C19.2336 28.8313 21.9766 28.1413 24.4312 26.8228C24.4927 26.7843 24.5613 26.7583 24.6329 26.7463C24.7045 26.7344 24.7778 26.7365 24.8486 26.7529C24.9193 26.7693 24.9861 26.7996 25.0452 26.8418C25.1042 26.8841 25.1543 26.9376 25.1926 26.9993C25.2687 27.1232 25.2928 27.2721 25.2598 27.4137C25.2267 27.5552 25.1391 27.6779 25.0161 27.7553C22.399 29.217 19.4448 29.9684 16.4473 29.9347Z" fill="#783AFC" stroke="#783AFC"/>
</g>
</g>
</svg>
